<svg width="72" height="73" viewBox="0 0 72 73" fill="none" xmlns="http://www.w3.org/2000/svg">
<g opacity="0.5">
<path d="M60.0891 20.7992L44.9578 5.66094C44.5359 5.23906 43.9594 5 43.3617 5H13.5C12.2555 5 11.25 6.00547 11.25 7.25V65.75C11.25 66.9945 12.2555 68 13.5 68H58.5C59.7445 68 60.75 66.9945 60.75 65.75V22.3883C60.75 21.7906 60.5109 21.2211 60.0891 20.7992ZM28.125 28.7656C29.6789 28.7656 30.9375 30.0242 30.9375 31.5781C30.9375 33.132 29.6789 34.3906 28.125 34.3906C26.5711 34.3906 25.3125 33.132 25.3125 31.5781C25.3125 30.0242 26.5711 28.7656 28.125 28.7656ZM48.9375 49.4375H23.0625C22.5914 49.4375 22.3313 48.8961 22.6195 48.5305L29.6367 39.5867C29.6893 39.5195 29.7566 39.4651 29.8333 39.4277C29.9101 39.3903 29.9943 39.3709 30.0797 39.3709C30.1651 39.3709 30.2493 39.3903 30.3261 39.4277C30.4028 39.4651 30.47 39.5195 30.5227 39.5867L33.4125 43.2711L38.8828 36.2961C38.9354 36.2289 39.0027 36.1745 39.0794 36.1371C39.1562 36.0997 39.2404 36.0803 39.3258 36.0803C39.4112 36.0803 39.4954 36.0997 39.5722 36.1371C39.6489 36.1745 39.7161 36.2289 39.7687 36.2961L49.3664 48.5305C49.6687 48.8961 49.4016 49.4375 48.9375 49.4375ZM42.3281 23.4219V10.1891L55.5609 23.4219H42.3281Z" fill="black"/>
</g>
</svg>
